<svg width="480" height="136" viewBox="0 0 480 136" fill="none" xmlns="http://www.w3.org/2000/svg">
<g clip-path="url(#clip0_151_57)">
<path d="M49.7569 107.944C41.9689 107.944 35.2429 106.174 29.5789 102.634C23.9149 99.0153 19.5489 94.1773 16.4809 88.12C13.4916 82.0627 11.9969 75.3367 11.9969 67.942C11.9969 60.5473 13.4916 53.8213 16.4809 47.764C19.5489 41.7067 23.9149 36.908 29.5789 33.368C35.2429 29.7493 41.9689 27.94 49.7569 27.94C55.6569 27.94 60.9669 29.002 65.6869 31.126C70.4069 33.1713 74.4189 36.0033 77.7229 39.622C81.0269 43.2407 83.5049 47.4493 85.1569 52.248H75.8349C73.8683 47.4493 70.7609 43.634 66.5129 40.802C62.2649 37.97 56.9156 36.554 50.4649 36.554C44.1716 36.554 38.7829 37.97 34.2989 40.802C29.8936 43.5553 26.5503 47.292 24.2689 52.012C21.9876 56.732 20.8469 62.042 20.8469 67.942C20.8469 73.7633 21.9876 79.0733 24.2689 83.872C26.5503 88.592 29.8936 92.368 34.2989 95.2C38.7829 97.9533 44.1716 99.33 50.4649 99.33C56.9156 99.33 62.2649 97.914 66.5129 95.082C70.7609 92.25 73.8683 88.4347 75.8349 83.636H85.1569C83.5049 88.356 81.0269 92.5647 77.7229 96.262C74.4189 99.8807 70.4069 102.752 65.6869 104.876C60.9669 106.921 55.6569 107.944 49.7569 107.944ZM94.8836 107V28.884H103.734V63.576H149.164V28.884H158.014V107H149.164V72.19H103.734V107H94.8836ZM208.313 107.944C202.413 107.944 197.024 106.921 192.147 104.876C187.27 102.831 183.061 99.9593 179.521 96.262C176.06 92.5647 173.385 88.3167 171.497 83.518C169.609 78.6407 168.665 73.4487 168.665 67.942C168.665 62.3567 169.609 57.1647 171.497 52.366C173.385 47.5673 176.06 43.3193 179.521 39.622C183.061 35.9247 187.27 33.0533 192.147 31.008C197.024 28.9627 202.413 27.94 208.313 27.94C214.213 27.94 219.602 28.9627 224.479 31.008C229.356 33.0533 233.526 35.9247 236.987 39.622C240.527 43.3193 243.241 47.5673 245.129 52.366C247.017 57.1647 247.961 62.3567 247.961 67.942C247.961 73.4487 247.017 78.6407 245.129 83.518C243.241 88.3167 240.527 92.5647 236.987 96.262C233.526 99.9593 229.356 102.831 224.479 104.876C219.602 106.921 214.213 107.944 208.313 107.944ZM208.313 99.33C214.685 99.33 220.152 97.9533 224.715 95.2C229.356 92.368 232.896 88.592 235.335 83.872C237.852 79.0733 239.111 73.7633 239.111 67.942C239.111 62.042 237.852 56.732 235.335 52.012C232.896 47.292 229.356 43.5553 224.715 40.802C220.152 37.97 214.685 36.554 208.313 36.554C202.02 36.554 196.552 37.97 191.911 40.802C187.27 43.5553 183.69 47.292 181.173 52.012C178.734 56.732 177.515 62.042 177.515 67.942C177.515 73.7633 178.734 79.0733 181.173 83.872C183.69 88.592 187.27 92.368 191.911 95.2C196.552 97.9533 202.02 99.33 208.313 99.33ZM258.581 107V28.884H295.987C304.011 28.884 310.383 31.0867 315.103 35.492C319.902 39.8973 322.301 45.8367 322.301 53.31C322.301 58.3447 321.318 62.3567 319.351 65.346C317.463 68.3353 315.064 70.6167 312.153 72.19C309.242 73.6847 306.332 74.786 303.421 75.494L323.953 107H313.451L294.571 77.028H267.431V107H258.581ZM267.431 68.65H294.453C297.285 68.65 300.156 68.2173 303.067 67.352C305.978 66.4867 308.416 64.9527 310.383 62.75C312.428 60.4687 313.451 57.322 313.451 53.31C313.451 48.354 311.76 44.46 308.377 41.628C304.994 38.7173 300.51 37.262 294.925 37.262H267.431V68.65ZM324.773 107L357.931 28.884H369.023L402.181 107H392.387L382.829 84.344H344.125L334.567 107H324.773ZM347.547 76.202H379.407L363.477 38.088L347.547 76.202ZM436.531 107.944C428.822 107.944 422.568 106.921 417.769 104.876C412.971 102.752 409.352 99.8413 406.913 96.144C404.553 92.4467 403.177 88.2773 402.783 83.636H411.987C412.223 87.412 413.482 90.48 415.763 92.84C418.045 95.1213 421.034 96.8127 424.731 97.914C428.507 99.0153 432.637 99.566 437.121 99.566C443.729 99.566 448.961 98.4253 452.815 96.144C456.67 93.784 458.597 90.3227 458.597 85.76C458.597 83.0067 457.614 80.804 455.647 79.152C453.759 77.4213 451.203 76.0053 447.977 74.904C444.831 73.8027 441.369 72.8193 437.593 71.954C433.817 71.01 430.002 70.0267 426.147 69.004C422.371 67.9813 418.871 66.6833 415.645 65.11C412.499 63.5367 409.942 61.5307 407.975 59.092C406.087 56.5747 405.143 53.3887 405.143 49.534C405.143 43.162 407.582 37.97 412.459 33.958C417.415 29.946 424.771 27.94 434.525 27.94C441.448 27.94 447.151 29.002 451.635 31.126C456.119 33.1713 459.463 35.8853 461.665 39.268C463.947 42.6507 465.205 46.3087 465.441 50.242H456.355C455.883 46.3087 453.917 43.0047 450.455 40.33C446.994 37.5767 441.684 36.2 434.525 36.2C430.12 36.2 426.541 36.6327 423.787 37.498C421.034 38.3633 418.91 39.504 417.415 40.92C415.999 42.2573 415.016 43.6733 414.465 45.168C413.993 46.6627 413.757 48.0787 413.757 49.416C413.757 52.012 414.701 54.136 416.589 55.788C418.556 57.3613 421.113 58.6987 424.259 59.8C427.485 60.8227 431.025 61.7667 434.879 62.632C438.734 63.4973 442.549 64.4807 446.325 65.582C450.18 66.6047 453.681 67.942 456.827 69.594C460.053 71.1673 462.609 73.2127 464.497 75.73C466.464 78.2473 467.447 81.4727 467.447 85.406C467.447 92.6433 464.694 98.2287 459.187 102.162C453.681 106.017 446.129 107.944 436.531 107.944Z" fill="white"/>
</g>
<defs>
<clipPath id="clip0_151_57">
<rect width="480" height="136" fill="white"/>
</clipPath>
</defs>
</svg>
